<mxfile host="app.diagrams.net" agent="Mozilla/5.0 (X11; Ubuntu; Linux x86_64; rv:135.0) Gecko/20100101 Firefox/135.0" version="26.0.13">
  <diagram id="ERAZcMxcufCHV4ufvkoL" name="Page-2">
    <mxGraphModel dx="568" dy="357" grid="1" gridSize="10" guides="1" tooltips="1" connect="1" arrows="1" fold="1" page="1" pageScale="1" pageWidth="827" pageHeight="1169" math="0" shadow="0">
      <root>
        <mxCell id="0" />
        <mxCell id="1" parent="0" />
        <mxCell id="3inlGKv2fdYW95ZMvG8B-5" value="" style="sketch=0;html=1;aspect=fixed;strokeColor=none;shadow=1;fillColor=#43978B;verticalAlign=top;labelPosition=center;verticalLabelPosition=bottom;shape=mxgraph.gcp2.gear;gradientColor=#316E8F;gradientDirection=east;align=center;fontFamily=Helvetica;fontSize=12;fontColor=default;" parent="1" vertex="1">
          <mxGeometry x="290" y="219.79" width="100" height="100" as="geometry" />
        </mxCell>
        <mxCell id="3inlGKv2fdYW95ZMvG8B-8" value="" style="shape=trapezoid;perimeter=trapezoidPerimeter;whiteSpace=wrap;html=1;fixedSize=1;rotation=90;size=22.88461538461536;fillColor=#43978B;strokeColor=none;shadow=1;sketch=0;align=center;verticalAlign=top;fontFamily=Helvetica;fontSize=12;fontColor=default;gradientColor=#316E8F;gradientDirection=east;" parent="1" vertex="1">
          <mxGeometry x="48" y="240" width="120" height="60" as="geometry" />
        </mxCell>
        <mxCell id="3inlGKv2fdYW95ZMvG8B-9" value="" style="shape=trapezoid;perimeter=trapezoidPerimeter;whiteSpace=wrap;html=1;fixedSize=1;rotation=90;size=13.000000000000028;align=center;verticalAlign=top;fontFamily=Helvetica;fontSize=12;fontColor=default;fillColor=#43978B;strokeColor=none;shadow=1;sketch=0;gradientColor=#316E8F;gradientDirection=east;" parent="1" vertex="1">
          <mxGeometry x="132" y="253" width="66" height="34" as="geometry" />
        </mxCell>
        <mxCell id="3inlGKv2fdYW95ZMvG8B-10" value="" style="shape=trapezoid;perimeter=trapezoidPerimeter;whiteSpace=wrap;html=1;fixedSize=1;rotation=90;size=5.120187667560344;align=center;verticalAlign=top;fontFamily=Helvetica;fontSize=12;fontColor=default;fillColor=#43978B;strokeColor=none;shadow=1;sketch=0;gradientColor=#316E8F;gradientDirection=east;" parent="1" vertex="1">
          <mxGeometry x="177.5" y="262.56" width="34.99" height="14.46" as="geometry" />
        </mxCell>
        <mxCell id="3inlGKv2fdYW95ZMvG8B-27" value="Images" style="text;html=1;align=center;verticalAlign=middle;resizable=0;points=[];autosize=1;strokeColor=none;fillColor=none;fontStyle=1;fontColor=#316E8F;fontSize=17;" parent="1" vertex="1">
          <mxGeometry x="107.5" y="188" width="80" height="30" as="geometry" />
        </mxCell>
        <mxCell id="3inlGKv2fdYW95ZMvG8B-28" value="AI component" style="text;html=1;align=center;verticalAlign=middle;resizable=0;points=[];autosize=1;strokeColor=none;fillColor=none;fontStyle=1;fontColor=#316E8F;fontSize=17;fontFamily=Helvetica;" parent="1" vertex="1">
          <mxGeometry x="275" y="188" width="130" height="30" as="geometry" />
        </mxCell>
        <mxCell id="3inlGKv2fdYW95ZMvG8B-30" value="Output label" style="text;html=1;align=center;verticalAlign=middle;resizable=0;points=[];autosize=1;strokeColor=none;fillColor=none;fontStyle=1;fontColor=#316E8F;fontSize=17;fontFamily=Helvetica;" parent="1" vertex="1">
          <mxGeometry x="482" y="188" width="120" height="30" as="geometry" />
        </mxCell>
        <mxCell id="3inlGKv2fdYW95ZMvG8B-33" value="" style="shape=flexArrow;endArrow=classic;html=1;rounded=0;align=center;verticalAlign=top;fontFamily=Helvetica;fontSize=12;fontColor=default;fillColor=#43978B;strokeColor=none;shadow=1;sketch=0;gradientColor=#316E8F;gradientDirection=east;" parent="1" edge="1">
          <mxGeometry width="50" height="50" relative="1" as="geometry">
            <mxPoint x="219.49" y="269.76" as="sourcePoint" />
            <mxPoint x="269.49" y="269.76" as="targetPoint" />
          </mxGeometry>
        </mxCell>
        <mxCell id="3inlGKv2fdYW95ZMvG8B-34" value="" style="shape=flexArrow;endArrow=classic;html=1;rounded=0;align=center;verticalAlign=top;fontFamily=Helvetica;fontSize=12;fontColor=default;fillColor=#43978B;strokeColor=none;gradientColor=#316E8F;shadow=1;sketch=0;gradientDirection=east;" parent="1" edge="1">
          <mxGeometry width="50" height="50" relative="1" as="geometry">
            <mxPoint x="413" y="269.76" as="sourcePoint" />
            <mxPoint x="463" y="269.76" as="targetPoint" />
          </mxGeometry>
        </mxCell>
        <mxCell id="DzDs2BiaG3ZKF_y5q9uf-1" value="" style="shape=curlyBracket;whiteSpace=wrap;html=1;rounded=1;labelPosition=left;verticalLabelPosition=middle;align=right;verticalAlign=middle;strokeWidth=5;gradientColor=#43978B;fillColor=#316E8F;strokeColor=#368397;" vertex="1" parent="1">
          <mxGeometry x="471" y="244" width="20" height="52" as="geometry" />
        </mxCell>
        <mxCell id="DzDs2BiaG3ZKF_y5q9uf-2" value="&lt;div&gt;OK&lt;/div&gt;&lt;div&gt;KO&lt;/div&gt;&lt;div&gt;UNKNOWN&lt;/div&gt;" style="text;html=1;align=left;verticalAlign=middle;resizable=0;points=[];autosize=1;strokeColor=none;fillColor=none;fontColor=#368397;fontStyle=1;fontSize=18;" vertex="1" parent="1">
          <mxGeometry x="496" y="229.79" width="120" height="80" as="geometry" />
        </mxCell>
      </root>
    </mxGraphModel>
  </diagram>
</mxfile>
